<svg xmlns="http://www.w3.org/2000/svg" xmlns:xlink="http://www.w3.org/1999/xlink" width="294" zoomAndPan="magnify" viewBox="0 0 220.5 32.999998" height="44" preserveAspectRatio="xMidYMid meet" version="1.0"><defs><g/><clipPath id="8823ddc20e"><path d="M 10.835938 0.0390625 L 50 0.0390625 L 50 32.960938 L 10.835938 32.960938 Z M 10.835938 0.0390625 " clip-rule="nonzero"/></clipPath><clipPath id="f2de27ec19"><path d="M 23 6 L 65.460938 6 L 65.460938 32 L 23 32 Z M 23 6 " clip-rule="nonzero"/></clipPath></defs><g clip-path="url(#8823ddc20e)"><path fill="#0092e6" d="M 47.667969 15.96875 C 45.453125 17.492188 43.621094 19.324219 41.875 21.273438 C 40.996094 22.242188 40.140625 23.242188 39.253906 24.238281 C 38.375 25.238281 37.453125 26.226562 36.464844 27.191406 C 35.472656 28.144531 34.414062 29.082031 33.222656 29.894531 C 32.628906 30.304688 32.011719 30.691406 31.363281 31.039062 C 30.710938 31.382812 30.03125 31.6875 29.332031 31.949219 C 27.933594 32.476562 26.445312 32.785156 24.957031 32.90625 C 24.585938 32.933594 24.214844 32.953125 23.84375 32.960938 L 23.667969 32.960938 L 23.296875 32.953125 C 23.222656 32.953125 23.109375 32.945312 23.003906 32.941406 L 22.691406 32.921875 C 21.898438 32.855469 21.140625 32.730469 20.378906 32.53125 C 18.863281 32.140625 17.417969 31.472656 16.132812 30.5625 C 14.855469 29.644531 13.746094 28.488281 12.886719 27.167969 C 12.027344 25.847656 11.414062 24.363281 11.109375 22.824219 C 11.03125 22.4375 10.96875 22.050781 10.929688 21.664062 L 10.90625 21.445312 L 10.898438 21.328125 L 10.882812 21.078125 C 10.871094 20.914062 10.859375 20.761719 10.859375 20.535156 C 10.859375 20.328125 10.851562 20.105469 10.859375 19.914062 L 10.886719 19.328125 C 10.921875 18.9375 10.957031 18.546875 11.027344 18.164062 C 11.28125 16.621094 11.820312 15.121094 12.628906 13.785156 C 13.429688 12.449219 14.46875 11.265625 15.683594 10.308594 C 16.910156 9.359375 18.304688 8.640625 19.777344 8.191406 C 20.515625 7.96875 21.273438 7.816406 22.035156 7.742188 C 22.226562 7.714844 22.414062 7.703125 22.605469 7.695312 C 22.796875 7.683594 22.988281 7.671875 23.179688 7.675781 L 23.6875 7.675781 L 23.71875 7.679688 L 23.78125 7.683594 L 24.277344 7.710938 L 22.765625 8.617188 C 23.429688 7.378906 24.238281 6.222656 25.1875 5.203125 C 26.136719 4.179688 27.203125 3.277344 28.371094 2.535156 C 29.539062 1.792969 30.796875 1.207031 32.101562 0.785156 C 33.40625 0.367188 34.761719 0.136719 36.113281 0.0664062 C 36.789062 0.0351562 37.46875 0.0429688 38.136719 0.109375 L 38.613281 0.152344 L 39.125 0.222656 C 39.472656 0.261719 39.800781 0.332031 40.125 0.398438 C 40.78125 0.535156 41.421875 0.726562 42.046875 0.945312 C 42.363281 1.054688 42.667969 1.191406 42.972656 1.308594 C 43.277344 1.441406 43.574219 1.589844 43.867188 1.734375 C 44.15625 1.894531 44.449219 2.046875 44.730469 2.21875 C 45.003906 2.398438 45.292969 2.554688 45.554688 2.75 C 45.820312 2.945312 46.089844 3.128906 46.335938 3.339844 L 46.714844 3.644531 C 46.839844 3.75 46.957031 3.863281 47.078125 3.972656 C 47.320312 4.1875 47.546875 4.417969 47.769531 4.652344 C 48 4.878906 48.203125 5.128906 48.414062 5.371094 C 48.625 5.609375 48.808594 5.875 49.007812 6.125 C 49.195312 6.382812 49.363281 6.652344 49.542969 6.914062 C 49.101562 6.457031 48.65625 6.011719 48.175781 5.601562 C 47.933594 5.402344 47.699219 5.195312 47.445312 5.015625 L 47.070312 4.734375 C 46.941406 4.644531 46.808594 4.5625 46.679688 4.476562 C 46.550781 4.390625 46.425781 4.300781 46.292969 4.21875 L 45.894531 3.980469 C 45.632812 3.816406 45.351562 3.683594 45.082031 3.542969 C 44.8125 3.394531 44.523438 3.28125 44.25 3.148438 C 43.96875 3.027344 43.679688 2.925781 43.398438 2.8125 C 43.105469 2.71875 42.816406 2.625 42.527344 2.535156 C 42.234375 2.460938 41.945312 2.371094 41.648438 2.308594 C 41.058594 2.183594 40.464844 2.082031 39.867188 2.03125 C 39.570312 2.003906 39.269531 1.976562 38.984375 1.972656 L 38.550781 1.960938 L 38.082031 1.96875 C 37.484375 1.972656 36.894531 2.042969 36.308594 2.125 C 35.140625 2.296875 34.003906 2.613281 32.933594 3.070312 C 31.863281 3.519531 30.851562 4.105469 29.9375 4.800781 C 29.015625 5.492188 28.191406 6.296875 27.480469 7.1875 C 26.773438 8.082031 26.167969 9.046875 25.699219 10.074219 L 25.285156 10.980469 L 24.1875 10.980469 L 23.691406 10.984375 L 23.597656 10.984375 C 23.683594 10.984375 23.613281 10.984375 23.628906 10.984375 L 23.617188 10.984375 L 23.511719 10.992188 L 23.300781 11.003906 C 23.160156 11.011719 23.019531 11.027344 22.882812 11.046875 C 22.742188 11.058594 22.605469 11.078125 22.464844 11.101562 C 21.917969 11.195312 21.371094 11.324219 20.851562 11.511719 C 19.804688 11.886719 18.835938 12.449219 17.996094 13.164062 C 17.160156 13.875 16.453125 14.738281 15.925781 15.691406 C 15.394531 16.648438 15.054688 17.695312 14.894531 18.765625 C 14.855469 19.035156 14.835938 19.304688 14.8125 19.574219 L 14.804688 19.984375 C 14.800781 20.117188 14.8125 20.230469 14.8125 20.355469 C 14.808594 20.457031 14.824219 20.636719 14.839844 20.800781 L 14.859375 21.046875 L 14.863281 21.078125 C 14.859375 21.058594 14.867188 21.144531 14.859375 21.039062 L 14.859375 21.054688 L 14.867188 21.105469 L 14.878906 21.203125 C 14.914062 21.472656 14.960938 21.742188 15.019531 22.003906 C 15.253906 23.058594 15.664062 24.066406 16.257812 24.960938 C 17.441406 26.753906 19.304688 28.078125 21.402344 28.636719 C 21.921875 28.773438 22.472656 28.871094 23 28.914062 L 23.179688 28.929688 C 23.242188 28.933594 23.292969 28.941406 23.386719 28.941406 L 23.832031 28.949219 C 24.121094 28.953125 24.410156 28.949219 24.703125 28.9375 C 25.859375 28.890625 26.988281 28.679688 28.097656 28.347656 C 29.203125 28.007812 30.277344 27.515625 31.328125 26.917969 C 32.375 26.3125 33.402344 25.605469 34.410156 24.820312 C 35.425781 24.050781 36.414062 23.203125 37.433594 22.363281 C 38.449219 21.511719 39.480469 20.65625 40.558594 19.835938 C 41.636719 19.019531 42.757812 18.238281 43.945312 17.570312 C 45.125 16.898438 46.378906 16.339844 47.667969 15.96875 " fill-opacity="1" fill-rule="nonzero"/></g><g clip-path="url(#f2de27ec19)"><path fill="#0092e6" d="M 46.25 27.855469 C 46.25 27.855469 46.3125 27.894531 46.4375 27.96875 C 46.5625 28.046875 46.75 28.152344 46.996094 28.285156 C 47.480469 28.546875 48.222656 28.894531 49.195312 29.175781 C 50.160156 29.457031 51.371094 29.65625 52.722656 29.585938 C 53.0625 29.566406 53.410156 29.53125 53.761719 29.484375 C 53.9375 29.449219 54.113281 29.414062 54.292969 29.378906 C 54.390625 29.359375 54.488281 29.339844 54.589844 29.324219 C 54.6875 29.304688 54.792969 29.285156 54.871094 29.253906 C 55.210938 29.136719 55.546875 29.070312 55.910156 28.90625 C 56.089844 28.835938 56.269531 28.769531 56.449219 28.691406 C 56.625 28.601562 56.800781 28.511719 56.980469 28.421875 C 57.679688 28.035156 58.382812 27.59375 58.996094 27.007812 C 59.617188 26.433594 60.214844 25.796875 60.679688 25.039062 C 61.148438 24.292969 61.542969 23.480469 61.808594 22.609375 C 61.867188 22.390625 61.921875 22.171875 61.976562 21.949219 C 62.03125 21.726562 62.054688 21.496094 62.097656 21.273438 C 62.148438 21.046875 62.152344 20.816406 62.171875 20.585938 L 62.199219 20.238281 L 62.199219 20.21875 C 62.191406 20.398438 62.199219 20.253906 62.195312 20.285156 L 62.195312 20.234375 L 62.191406 20.128906 L 62.1875 19.921875 C 62.179688 19.648438 62.183594 19.347656 62.167969 19.09375 C 62.132812 18.882812 62.101562 18.675781 62.078125 18.464844 C 62.066406 18.265625 61.988281 18.019531 61.941406 17.792969 L 61.863281 17.445312 C 61.84375 17.332031 61.792969 17.222656 61.757812 17.109375 C 61.484375 16.199219 61.027344 15.347656 60.476562 14.566406 C 59.371094 12.988281 57.714844 11.804688 55.882812 11.199219 C 55.648438 11.140625 55.417969 11.074219 55.183594 11.007812 C 55.066406 10.96875 54.949219 10.953125 54.828125 10.933594 L 54.472656 10.875 L 54.113281 10.816406 L 53.75 10.796875 L 53.386719 10.773438 L 53.207031 10.761719 C 53.230469 10.761719 53.121094 10.761719 53.25 10.761719 L 53.167969 10.761719 L 53.058594 10.765625 L 52.167969 10.792969 C 51.929688 10.820312 51.695312 10.839844 51.453125 10.859375 C 51.21875 10.875 50.949219 10.933594 50.699219 10.964844 C 50.441406 10.996094 50.1875 11.054688 49.933594 11.113281 C 49.679688 11.167969 49.425781 11.21875 49.179688 11.296875 C 48.929688 11.375 48.675781 11.429688 48.429688 11.519531 C 48.179688 11.601562 47.933594 11.683594 47.6875 11.765625 C 47.441406 11.863281 47.199219 11.957031 46.953125 12.054688 C 45.984375 12.453125 45.046875 12.933594 44.132812 13.445312 C 42.316406 14.492188 40.613281 15.707031 39.035156 16.929688 C 37.445312 18.164062 35.960938 19.394531 34.554688 20.515625 C 33.140625 21.636719 31.835938 22.644531 30.59375 23.488281 C 29.351562 24.320312 28.171875 24.949219 27.140625 25.300781 C 26.113281 25.667969 25.257812 25.765625 24.6875 25.785156 C 24.402344 25.804688 24.183594 25.78125 24.039062 25.773438 C 23.894531 25.765625 23.820312 25.761719 23.820312 25.761719 C 23.820312 25.761719 23.890625 25.746094 24.035156 25.714844 C 24.175781 25.679688 24.386719 25.640625 24.652344 25.554688 C 25.183594 25.40625 25.933594 25.097656 26.789062 24.566406 C 27.648438 24.035156 28.597656 23.257812 29.609375 22.269531 C 30.117188 21.769531 30.644531 21.230469 31.207031 20.636719 C 31.765625 20.050781 32.351562 19.429688 32.964844 18.785156 C 34.191406 17.492188 35.527344 16.066406 37.035156 14.621094 C 38.5625 13.175781 40.261719 11.707031 42.238281 10.386719 C 43.226562 9.726562 44.289062 9.125 45.417969 8.585938 C 46.542969 8.039062 47.757812 7.605469 49.027344 7.285156 C 49.34375 7.203125 49.660156 7.121094 49.988281 7.070312 C 50.320312 7.011719 50.625 6.9375 50.976562 6.902344 C 51.328125 6.859375 51.675781 6.816406 52.027344 6.785156 L 52.917969 6.75 L 53.027344 6.742188 L 53.113281 6.742188 C 53.261719 6.738281 53.171875 6.742188 53.214844 6.738281 L 53.476562 6.75 L 54.53125 6.804688 C 54.707031 6.824219 54.878906 6.855469 55.054688 6.878906 L 55.578125 6.960938 C 55.753906 6.988281 55.929688 7.015625 56.097656 7.066406 L 57.125 7.339844 C 58.46875 7.792969 59.734375 8.457031 60.859375 9.300781 C 62 10.128906 62.941406 11.195312 63.710938 12.339844 C 63.90625 12.628906 64.101562 12.914062 64.253906 13.222656 C 64.410156 13.53125 64.59375 13.824219 64.722656 14.140625 C 64.851562 14.460938 64.976562 14.777344 65.101562 15.09375 C 65.21875 15.414062 65.296875 15.746094 65.394531 16.070312 C 65.4375 16.234375 65.492188 16.390625 65.519531 16.558594 L 65.609375 17.054688 C 65.660156 17.390625 65.738281 17.699219 65.753906 18.066406 C 65.78125 18.421875 65.796875 18.773438 65.8125 19.125 C 65.808594 19.433594 65.785156 19.695312 65.773438 19.980469 L 65.746094 20.496094 L 65.675781 20.976562 C 65.628906 21.296875 65.59375 21.617188 65.507812 21.925781 C 65.425781 22.234375 65.367188 22.546875 65.265625 22.84375 C 65.160156 23.140625 65.058594 23.4375 64.953125 23.730469 C 64.480469 24.882812 63.863281 25.933594 63.128906 26.839844 C 61.660156 28.660156 59.773438 29.90625 57.910156 30.570312 C 57.671875 30.644531 57.441406 30.722656 57.210938 30.796875 C 56.976562 30.863281 56.742188 30.910156 56.511719 30.96875 C 56.066406 31.089844 55.570312 31.132812 55.117188 31.191406 C 54.996094 31.210938 54.898438 31.210938 54.796875 31.214844 C 54.695312 31.214844 54.597656 31.21875 54.496094 31.222656 C 54.28125 31.226562 54.070312 31.230469 53.859375 31.234375 C 53.445312 31.226562 53.039062 31.195312 52.652344 31.144531 C 51.101562 30.941406 49.832031 30.449219 48.882812 29.921875 C 47.921875 29.410156 47.28125 28.847656 46.859375 28.472656 C 46.644531 28.28125 46.5 28.125 46.398438 28.015625 C 46.300781 27.910156 46.25 27.855469 46.25 27.855469 " fill-opacity="1" fill-rule="nonzero"/></g><path fill="#5ce1e6" d="M 26.921875 27.1875 C 26.832031 27.203125 26.742188 27.210938 26.652344 27.222656 C 26.601562 27.226562 26.566406 27.230469 26.527344 27.230469 L 26.414062 27.242188 L 26.386719 27.242188 L 26.371094 27.246094 L 26.261719 27.246094 L 26.082031 27.25 L 25.949219 27.253906 L 25.777344 27.257812 C 25.589844 27.257812 25.402344 27.25 25.21875 27.234375 C 23.734375 27.121094 22.265625 26.535156 21.054688 25.582031 C 20.449219 25.105469 19.910156 24.539062 19.464844 23.914062 C 19.011719 23.289062 18.652344 22.605469 18.402344 21.882812 C 18.28125 21.523438 18.183594 21.152344 18.117188 20.777344 C 18.097656 20.6875 18.085938 20.59375 18.070312 20.496094 C 18.0625 20.40625 18.046875 20.304688 18.039062 20.226562 C 18.035156 20.183594 18.03125 20.152344 18.027344 20.085938 L 18.015625 19.929688 L 18.007812 19.640625 C 17.992188 18.863281 18.078125 18.085938 18.285156 17.339844 C 18.390625 16.964844 18.519531 16.597656 18.675781 16.238281 C 18.839844 15.882812 19.023438 15.539062 19.234375 15.203125 C 19.65625 14.542969 20.167969 13.933594 20.769531 13.414062 C 21.203125 13.035156 21.6875 12.703125 22.195312 12.425781 C 22.191406 12.425781 22.1875 12.429688 22.183594 12.429688 C 21.796875 12.539062 21.417969 12.679688 21.054688 12.84375 C 20.324219 13.171875 19.640625 13.597656 19.046875 14.121094 C 18.441406 14.636719 17.933594 15.25 17.507812 15.910156 C 17.300781 16.242188 17.113281 16.589844 16.953125 16.945312 C 16.796875 17.300781 16.667969 17.671875 16.5625 18.042969 C 16.355469 18.792969 16.265625 19.570312 16.285156 20.34375 L 16.292969 20.636719 L 16.304688 20.789062 C 16.308594 20.855469 16.3125 20.886719 16.316406 20.933594 C 16.324219 21.007812 16.335938 21.109375 16.347656 21.203125 C 16.363281 21.296875 16.375 21.390625 16.394531 21.484375 C 16.460938 21.859375 16.554688 22.226562 16.679688 22.589844 C 16.925781 23.3125 17.289062 23.996094 17.738281 24.621094 C 18.1875 25.246094 18.726562 25.808594 19.332031 26.285156 C 20.539062 27.242188 22.007812 27.828125 23.496094 27.941406 C 23.679688 27.957031 23.867188 27.964844 24.050781 27.960938 L 24.222656 27.960938 L 24.359375 27.957031 L 24.535156 27.953125 L 24.625 27.949219 L 24.660156 27.949219 L 24.691406 27.945312 L 24.804688 27.9375 C 24.84375 27.933594 24.878906 27.933594 24.925781 27.925781 C 25.015625 27.914062 25.109375 27.910156 25.195312 27.894531 C 25.378906 27.871094 25.554688 27.835938 25.734375 27.796875 C 26.410156 27.640625 27.082031 27.375 27.734375 27.019531 C 27.644531 27.046875 27.550781 27.070312 27.460938 27.089844 C 27.28125 27.128906 27.101562 27.164062 26.921875 27.1875 " fill-opacity="1" fill-rule="nonzero"/><path fill="#5ce1e6" d="M 60.167969 19.703125 L 60.167969 19.625 C 60.167969 19.515625 60.167969 19.40625 60.164062 19.296875 C 60.160156 19.191406 60.152344 19.082031 60.144531 18.972656 C 60.109375 18.535156 60.039062 18.101562 59.925781 17.671875 C 59.699219 16.8125 59.308594 15.988281 58.765625 15.257812 C 58.230469 14.53125 57.542969 13.902344 56.757812 13.433594 C 55.96875 12.960938 55.089844 12.640625 54.171875 12.503906 C 53.714844 12.433594 53.246094 12.414062 52.785156 12.433594 C 52.320312 12.457031 51.859375 12.527344 51.410156 12.636719 C 50.808594 12.785156 50.234375 13.011719 49.695312 13.292969 C 49.804688 13.261719 49.914062 13.234375 50.023438 13.207031 C 50.472656 13.09375 50.933594 13.023438 51.398438 13 C 51.863281 12.980469 52.328125 13 52.785156 13.070312 C 53.703125 13.207031 54.585938 13.53125 55.371094 14 C 56.15625 14.472656 56.84375 15.097656 57.378906 15.828125 C 57.921875 16.554688 58.3125 17.382812 58.539062 18.238281 C 58.652344 18.667969 58.722656 19.105469 58.757812 19.539062 C 58.769531 19.648438 58.773438 19.757812 58.777344 19.867188 C 58.785156 19.972656 58.785156 20.082031 58.785156 20.191406 L 58.785156 20.320312 L 58.78125 20.355469 L 58.777344 20.523438 C 58.773438 20.621094 58.769531 20.707031 58.757812 20.828125 C 58.75 20.941406 58.738281 21.046875 58.730469 21.152344 C 58.714844 21.257812 58.703125 21.363281 58.6875 21.46875 C 58.652344 21.679688 58.613281 21.890625 58.566406 22.097656 C 58.464844 22.511719 58.335938 22.917969 58.179688 23.3125 C 57.863281 24.097656 57.429688 24.828125 56.902344 25.476562 C 56.371094 26.121094 55.753906 26.683594 55.070312 27.140625 C 54.824219 27.304688 54.574219 27.449219 54.316406 27.585938 C 55.066406 27.355469 55.789062 27.015625 56.453125 26.574219 C 57.136719 26.117188 57.757812 25.554688 58.289062 24.90625 C 58.816406 24.261719 59.246094 23.527344 59.5625 22.742188 C 59.722656 22.351562 59.851562 21.945312 59.949219 21.53125 C 60 21.324219 60.039062 21.113281 60.070312 20.902344 C 60.089844 20.796875 60.101562 20.691406 60.113281 20.585938 C 60.125 20.476562 60.136719 20.375 60.144531 20.257812 C 60.152344 20.140625 60.15625 20.050781 60.164062 19.957031 L 60.167969 19.789062 L 60.167969 19.703125 " fill-opacity="1" fill-rule="nonzero"/><g fill="#ffffff" fill-opacity="1"><g transform="translate(68.252392, 19.867361)"><g><path d="M 4.8125 -4.53125 L 4.8125 -3.09375 L 7.421875 -3.09375 C 7.09375 -2.203125 6.109375 -1.609375 5 -1.609375 C 3.421875 -1.609375 2.390625 -2.71875 2.390625 -4.328125 C 2.390625 -5.96875 3.453125 -7.078125 5 -7.078125 C 6.09375 -7.078125 7 -6.5 7.375 -5.5625 L 9.3125 -5.5625 C 8.90625 -7.515625 7.125 -8.875 4.953125 -8.875 C 2.390625 -8.875 0.484375 -6.9375 0.484375 -4.328125 C 0.484375 -1.734375 2.4375 0.203125 5 0.203125 C 7.609375 0.203125 9.421875 -1.8125 9.421875 -4.53125 Z M 4.8125 -4.53125 "/></g></g></g><g fill="#ffffff" fill-opacity="1"><g transform="translate(80.623093, 19.867361)"><g><path d="M 6.75 0 L 8.8125 0 L 5.296875 -8.6875 L 3.515625 -8.6875 L 0.09375 0 L 2.09375 0 L 2.703125 -1.640625 L 6.15625 -1.640625 Z M 4.421875 -6.390625 L 5.5625 -3.28125 L 3.28125 -3.28125 Z M 4.421875 -6.390625 "/></g></g></g><g fill="#ffffff" fill-opacity="1"><g transform="translate(92.013757, 19.867361)"><g><path d="M 5.78125 0 L 7.875 0 L 5.953125 -3.28125 C 6.921875 -3.75 7.546875 -4.671875 7.546875 -5.8125 C 7.546875 -7.484375 6.234375 -8.6875 4.5 -8.6875 L 1 -8.6875 L 1 0 L 2.875 0 L 2.875 -2.953125 L 4.078125 -2.953125 Z M 2.875 -6.953125 L 4.375 -6.953125 C 5.171875 -6.953125 5.625 -6.46875 5.625 -5.828125 C 5.625 -5.171875 5.171875 -4.703125 4.375 -4.703125 L 2.875 -4.703125 Z M 2.875 -6.953125 "/></g></g></g><g fill="#ffffff" fill-opacity="1"><g transform="translate(102.697304, 19.867361)"><g><path d="M 11.640625 0 L 10.296875 -8.6875 L 8.40625 -8.6875 L 6.046875 -3.359375 L 3.6875 -8.6875 L 1.8125 -8.6875 L 0.453125 0 L 2.359375 0 L 3.21875 -5.671875 L 5.8125 -0.015625 L 6.265625 -0.015625 L 8.875 -5.671875 L 9.71875 0 Z M 11.640625 0 "/></g></g></g><g fill="#ffffff" fill-opacity="1"><g transform="translate(117.276181, 19.867361)"><g><path d="M 3.875 0.171875 C 5.671875 0.171875 7.171875 -0.734375 7.171875 -2.609375 C 7.171875 -4.5625 5.5 -4.96875 4.1875 -5.296875 C 3.25 -5.53125 2.515625 -5.71875 2.515625 -6.328125 C 2.515625 -6.890625 3.125 -7.15625 3.71875 -7.15625 C 4.4375 -7.15625 5.0625 -6.8125 5.0625 -6.046875 L 6.90625 -6.046875 C 6.90625 -7.78125 5.78125 -8.859375 3.78125 -8.859375 C 1.84375 -8.859375 0.625 -7.90625 0.625 -6.25 C 0.625 -4.375 2.21875 -3.984375 3.53125 -3.671875 C 4.46875 -3.453125 5.265625 -3.265625 5.265625 -2.578125 C 5.265625 -1.9375 4.578125 -1.5625 3.859375 -1.5625 C 3.09375 -1.5625 2.390625 -1.96875 2.390625 -2.8125 L 0.5 -2.8125 C 0.5 -0.9375 1.875 0.171875 3.875 0.171875 Z M 3.875 0.171875 "/></g></g></g><g fill="#ffffff" fill-opacity="1"><g transform="translate(86.710898, 27.507525)"><g><path d="M 2.234375 0.09375 C 3.375 0.09375 4.234375 -0.765625 4.234375 -1.890625 C 4.234375 -3.015625 3.375 -3.859375 2.234375 -3.859375 C 1.078125 -3.859375 0.203125 -3.015625 0.203125 -1.890625 C 0.203125 -0.765625 1.078125 0.09375 2.234375 0.09375 Z M 2.234375 -0.6875 C 1.546875 -0.6875 1.03125 -1.21875 1.03125 -1.890625 C 1.03125 -2.578125 1.546875 -3.09375 2.234375 -3.09375 C 2.90625 -3.09375 3.40625 -2.578125 3.40625 -1.890625 C 3.40625 -1.203125 2.90625 -0.6875 2.234375 -0.6875 Z M 2.234375 -0.6875 "/></g></g></g><g fill="#ffffff" fill-opacity="1"><g transform="translate(95.485709, 27.507525)"><g><path d="M 1.890625 -3.78125 L 0.4375 -3.78125 L 0.4375 0 L 1.25 0 L 1.25 -1.171875 L 1.890625 -1.171875 C 2.65625 -1.171875 3.21875 -1.734375 3.21875 -2.484375 C 3.21875 -3.234375 2.640625 -3.78125 1.890625 -3.78125 Z M 1.84375 -1.9375 L 1.25 -1.9375 L 1.25 -3.015625 L 1.84375 -3.015625 C 2.171875 -3.015625 2.390625 -2.796875 2.390625 -2.484375 C 2.390625 -2.171875 2.171875 -1.9375 1.84375 -1.9375 Z M 1.84375 -1.9375 "/></g></g></g><g fill="#ffffff" fill-opacity="1"><g transform="translate(103.173803, 27.507525)"><g><path d="M 1.6875 0.078125 C 2.46875 0.078125 3.125 -0.3125 3.125 -1.140625 C 3.125 -1.984375 2.390625 -2.15625 1.828125 -2.3125 C 1.421875 -2.40625 1.09375 -2.484375 1.09375 -2.75 C 1.09375 -3 1.359375 -3.109375 1.625 -3.109375 C 1.9375 -3.109375 2.203125 -2.96875 2.203125 -2.625 L 3 -2.625 C 3 -3.390625 2.515625 -3.859375 1.640625 -3.859375 C 0.8125 -3.859375 0.265625 -3.4375 0.265625 -2.71875 C 0.265625 -1.90625 0.96875 -1.734375 1.53125 -1.59375 C 1.953125 -1.5 2.296875 -1.421875 2.296875 -1.125 C 2.296875 -0.84375 1.984375 -0.6875 1.6875 -0.6875 C 1.34375 -0.6875 1.046875 -0.859375 1.046875 -1.21875 L 0.21875 -1.21875 C 0.21875 -0.40625 0.8125 0.078125 1.6875 0.078125 Z M 1.6875 0.078125 "/></g></g></g></svg>